<svg width="920" height="1016" viewBox="0 0 920 1016" fill="none" xmlns="http://www.w3.org/2000/svg">
<g clip-path="url(#clip0_68_30204)">
<path d="M774.364 176.628C774.953 176.713 774.762 176.731 775.353 177.179C776.249 181.3 776.029 184.661 775.841 188.875C763.292 190.004 750.358 189.557 737.915 192.057C706.135 198.445 712.725 233.932 713.801 257.718L717 325.774L726.143 520.13L728.72 575.775C729.297 588.13 729.947 599.32 730.069 611.749C730.878 692.985 704.055 772.253 646.099 830.547C592.452 884.627 519.406 915.015 443.218 914.951C366.391 915.076 300.573 880.707 250.065 825.167C246.961 821.755 242.995 818.441 239.686 815.1C232.154 807.499 225.3 799.309 217.874 791.616C209.704 783.497 198.758 777.68 189.062 771.625C183.01 767.844 176.774 763.176 170.033 760.884C164.266 758.922 157.675 759.099 151.665 759.12C149.298 761.031 148.072 762.182 145.194 760.634C143.845 759.019 143.441 757.215 144.742 755.378C145.36 754.494 146.344 753.942 147.42 753.87C149.563 753.72 150.594 754.973 152.119 756.357C158.008 755.935 159.435 756.023 165.215 757.324C161.067 754.183 157.324 751.957 152.331 750.437C150.221 749.794 146.539 749.006 145.231 747.268C144.912 745.383 145.56 743.956 147.675 743.525C149.542 743.14 151.83 744.803 153.167 746.038C156.149 748.793 159.279 750.963 162.704 753.138C159.556 747.94 154.363 746.302 152.697 740.907C151.98 738.585 156.458 736.493 158.401 736.718C161.706 737.101 160.621 743.017 160.414 745.147C161.656 747.501 166.488 753.489 168.637 755.062C182.428 765.138 197.642 773.976 212.166 782.886C203.095 767.47 195.114 750.346 187.388 735.182C182.581 725.753 152.473 714.216 143.332 708.722C138.067 706.109 132.687 702.239 127.846 699.172C108.304 686.788 98.2629 670.904 94.9348 648.122C94.7505 646.854 94.7664 646.485 95.4806 645.48L96.5951 645.583C98.566 646.684 101.07 649.467 102.745 651.169C108.668 657.189 115.998 661.33 123.187 665.651C136.714 673.786 150.314 681.958 162.258 692.371C169.733 698.885 175.94 706.664 182.219 714.305C180.296 704.292 178.432 692.103 175.83 682.471C173.017 672.063 167.492 660.251 163.19 650.337C161.778 647.087 158.588 638.604 156.521 636.441C154.684 634.517 146.07 626.384 143.106 626.514C141.461 626.585 140.784 626.347 139.344 624.838C138.681 622.622 139.503 620.864 141.599 619.877C145.921 619.626 147.619 624.73 150.458 627.499C151.937 628.941 153.015 629.932 154.627 631.262C153.854 628.791 151.909 619.109 149.618 618.292C146.329 617.12 145.469 613.502 147.637 611.134C149.152 610.846 152.066 611.691 152.43 613.199C154.082 619.999 155.307 626.89 158.571 633.195L158.853 633.73C158.788 630.252 157.495 618.26 158.863 616.111C159.361 615.333 160.158 614.796 161.065 614.623C163.267 614.19 165.298 615.397 165.371 617.781C165.46 620.667 163.229 622.329 161.33 624.145C161.167 643.402 169.069 656.124 177.074 673.033C177.536 666.048 177.888 659.055 178.393 652.069C178.752 647.095 180.043 638.141 179.775 633.607C178.162 606.318 159.718 583.225 149.59 558.439C142.212 540.982 140.503 528.042 147.7 509.733C163.591 538.899 180.924 562.936 183.254 597.308C183.803 605.392 183.465 611.946 183.195 620.002C186.075 610.538 192.378 595.294 193.734 585.517C195.46 573.072 195.154 552.262 193.798 539.607C193.247 534.454 187.832 519.263 185.371 514.145C184.893 512.503 182.017 511.138 181.45 509.932C177.757 502.073 194.168 500.779 187.484 512.317C189.609 517.844 191.083 523.235 193.436 528.914C194.703 522.058 195.678 514.881 196.886 507.94C186.128 496.817 213.096 499.215 198.828 509.705C197.376 516.251 196.321 525.094 196.607 531.75C197.837 529.425 202.685 520.315 202.404 517.481C201.286 515.794 203.846 511.271 205.953 511.991C212.842 514.345 211.209 519.108 205.027 520.739C190.715 541.305 200.613 564.026 196.451 587.863C203.044 574.219 212.598 559.677 220.422 546.563C224.282 540.267 228.879 534.234 232.529 527.848C234.81 523.311 235.566 517.71 236.958 512.813C241.686 496.193 255.683 482.222 270.712 474.313C279.117 469.89 290.856 464.569 300.324 463.12C291.373 474.098 289.517 485.627 280.338 495.369C271.554 504.504 259.887 510.092 249.059 516.264C237.368 522.925 234.006 530.638 228.011 541.726C223.105 550.8 215.552 559.636 211.648 569.294C223.597 559.476 223.78 558.688 239.065 553.133C278.431 497.543 333.251 470.603 398.489 455.756C397.789 446.152 397.517 435.821 397.022 426.142L394.266 373.109L389.772 288.401L387.263 237.665C386.787 228.03 386.566 218.125 385.833 208.543C345.421 210.092 304.842 213.121 264.429 215.035C251.613 215.642 236.184 215.647 223.799 218.378C219.46 219.33 215.475 221.478 212.293 224.577C199.512 237.025 202.15 260.775 201.935 276.994C198.761 277.105 195.525 277.066 192.344 277.062C191.778 273.171 191.688 262.639 191.435 258.01C190.479 241.017 189.764 224.011 189.289 206.998C196.522 206.194 206.649 205.944 214.055 205.557L260.022 203.169L404.089 195.712L686.055 180.972C715.433 179.611 744.924 177.524 774.364 176.628ZM453.988 205.593C454.812 241.086 457.408 278.995 459.141 314.596L469.984 534.634L477.105 673.842L479.353 717.001C480.746 741.429 480.185 770.724 511.511 772.733C521.805 773.397 531.686 773.191 541.994 772.882C544.268 772.814 546.539 772.712 548.809 772.578C548.836 775.001 548.821 777.517 548.891 779.93C535.484 781.295 520.145 781.778 506.552 782.495L445.099 785.698C413.734 787.096 382.151 789.372 350.75 790.357C350.273 787.042 350.257 786.304 350.454 782.983C394.065 779.713 418.265 779.38 412.46 726.549C412.04 722.724 411.933 717.313 411.712 713.333L409.149 664.98L402.428 531.778C401.515 515.889 400.747 499.995 400.126 484.093C399.827 477.425 399.163 469.686 399.169 463.108C344.412 472.557 282.297 505.136 249.398 550.987C249.243 551.202 249.092 551.422 248.947 551.643C258.748 552.946 267.779 554.789 277.418 556.774C281.556 557.627 287.438 556.839 291.023 557.817L291.182 558.614C289.94 560.263 287.222 562.246 285.533 563.58C277.725 569.733 270.349 574.87 260.246 576.34C250.953 577.688 243.002 576.165 233.82 575.821C232.348 578.94 228.248 587.105 227.257 589.932C223.138 600.053 218.684 611.577 216.112 622.199C219.514 617.611 221.16 613.923 223.6 608.843L223.483 608.274C223 605.841 222.842 603.869 225.825 603.133C229.1 606.283 221.489 618.899 219.365 622.29C225.229 617.564 233.888 613.17 236.077 605.698C236.976 602.634 240.348 601.048 242.441 603.851C243.124 604.754 243.411 605.893 243.234 607.008C243.048 608.273 242.334 609.396 241.271 610.095C240.225 610.795 238.481 610.866 237.245 610.946C232.572 615.541 227.051 620.086 221.951 624.254C227.001 622.935 230.226 622.203 235.352 621.308C244.67 610.39 247.212 631.348 235.873 624.471L235.48 624.24C235.403 624.189 235.326 624.142 235.249 624.091C226.95 624.683 222.72 625.961 215.043 628.848C213.626 635.56 209.568 656.87 209.712 663.319L210.182 663.935C212.06 663.805 214.671 662.787 215.834 664.209C219.358 668.519 215.343 670.687 212.419 671.999C211.59 676.543 210.55 680.346 209.666 684.676C213.473 681.502 215.223 678.475 218.151 674.628C219.194 673.259 224.599 675.592 222.801 678.146C218.942 683.631 214.125 683.095 209.546 689.12C209.526 705.162 210.883 720.008 214.452 735.698C215.261 739.25 216.121 744.004 217.361 747.386C220.027 726.205 225.534 710.024 232.365 689.995C234.37 684.117 237.284 673.283 239.612 667.952C250.452 687.759 253.511 700.501 246.834 722.103C241.245 740.18 230.04 757.688 228.144 776.095C252.919 831.562 303.512 872.508 359.618 894.164C416.817 916.244 486.275 912.731 542.334 888.638C591.984 867.301 624.123 830.835 643.101 780.651C655.954 746.669 660.515 707.581 662.327 671.304C663.722 643.316 661.725 613.11 660.333 585.005L654.924 475.714L647.829 329.963C646.734 309.878 646.16 289.953 644.603 269.875C642.371 241.16 632.096 218.809 603.496 208.054C599.281 206.494 594.956 205.245 590.557 204.319C569.088 199.896 547.896 200.969 526.177 201.924C513.55 202.456 500.926 203.066 488.306 203.752C478.588 204.31 462.954 204.587 453.988 205.593ZM182.843 668.966L183.09 674.706C186.337 660.178 190.152 649.828 199.502 637.752C201.737 634.863 206.842 630.563 208.165 627.556C209.81 623.816 210.631 617.968 211.926 613.808C214.881 604.316 218.152 594.849 222.095 585.717C222.726 584.255 226.43 577.246 225.977 576.231C218.485 577.858 204.422 583.016 200.749 590.177C191.937 607.351 186.81 630.491 184.127 649.558C183.349 655.088 183.2 663.48 182.843 668.966ZM172.92 717.999C175.072 715.57 174.062 717.784 177.22 717.759C180.608 721.217 182.547 724.759 185.324 727.577C183.857 722.981 180.878 718.717 178.328 714.646C159.623 684.765 124.428 673.847 99.2389 651.787C103.241 674.276 110.984 682.119 129.359 695.345C137.128 700.935 143.112 704.581 151.655 709.026C157.303 711.966 167.807 716.169 172.504 719.544L173.164 719.478C173.094 718.765 173.122 718.677 172.92 717.999ZM206.923 580.754C214.796 576.752 220.52 574.2 229.609 573.274C234.41 572.787 240.057 573.129 244.86 573.54C262.519 575.053 270.261 571.802 284.049 561.079L284.27 560.353L283.827 560.13C256.193 558.108 243.674 545.681 218.955 567.002C218.211 567.635 217.496 568.307 216.815 569.009C218.54 568.136 223.363 565.698 224.978 565.15C231.15 563.065 253.389 560.176 259.177 561.536L259.969 562.156L259.856 562.772C258.397 563.539 246.473 564.066 244.358 564.058C225.16 565.628 220.604 567.422 206.923 580.754ZM232.269 725.756C228.681 736.626 223.42 758.135 224.971 769.402L225.006 769.676C228.033 760.169 230.817 753.221 234.688 743.874C243.532 722.524 253.082 700.929 241.81 678.347C241.248 677.225 240.225 675.546 239.192 674.866C236.338 683.695 233.511 693.841 230.987 702.733C226.77 717.594 217.38 745.664 221.605 760.363C222.604 747.836 229.4 721.431 235.266 710.19L235.933 710.087C236.906 711.991 233.082 723.029 232.269 725.756ZM243.326 516.081C256.207 508.763 271.18 500.934 280.734 489.481C282.441 487.436 292.5 470.119 292.738 467.78C274.349 473.717 253.729 485.263 244.705 503.044C242.544 507.301 240.562 511.849 238.658 516.231C249.64 506.405 257.223 496.96 269.308 487.187C270.239 486.452 271.472 485.251 272.57 485.125L272.78 485.671C271.509 487.872 260.934 496.988 258.141 499.744C252.903 504.911 247.957 510.365 243.326 516.081ZM219.898 782.924C215.604 765.648 210.431 748.708 206.683 731.305C205.683 726.656 203.695 705.04 202.333 703.222C196.58 728.736 205.598 759.666 218.747 781.809C219.116 782.428 219.313 782.555 219.898 782.924ZM180.897 602.102C178.396 574.884 169.319 554.864 156.31 531.215C154.072 527.145 150.927 519.428 147.796 516.251C143.659 537.983 149.449 551.882 158.841 570.776C162.952 579.047 167.169 587.334 171.368 595.563C173.957 600.638 176.369 606.593 179.282 611.415C175.86 593.037 171.135 580.381 163.539 563.482C161.971 560.061 161.117 558.04 160.477 554.295C166.734 562.17 174.221 583.32 177.933 592.92C178.964 595.59 179.644 599.312 180.897 602.102ZM209.246 676.401C210.128 674.339 211.719 671.551 209.398 669.888C208.846 671.956 208.099 674.437 209.246 676.401ZM207.031 633.437C201.585 638.392 197.475 644.851 193.957 651.29C178.993 678.674 185.594 715.557 198.257 742.839C199.09 744.719 199.883 746.615 200.863 748.421C200.082 742.894 198.588 737.107 198.185 731.725C197.086 717.014 199.659 703.273 202.206 688.923C202.966 684.642 202.193 676.125 202.391 671.224C199.515 667.314 199.932 666.944 203.122 663.236C203.577 659.572 207.718 634.9 207.031 633.437Z" fill="#DAA520 "/>
<path d="M121.841 677.751C127.109 679.775 132.421 683.501 137.227 686.498C152.395 695.957 164.721 705.011 177.22 717.759C174.061 717.784 175.072 715.57 172.919 717.999C169.533 716.081 160.701 706.87 156.567 703.49C146.242 695.055 130.988 686.739 121.841 677.751Z" fill="#DAA520 " fill-opacity="0.976471"/>
<path d="M209.397 669.888C211.718 671.551 210.128 674.339 209.245 676.401C208.098 674.437 208.845 671.957 209.397 669.888Z" fill="#DAA520 " fill-opacity="0.0117647"/>
</g>
<defs>
<clipPath id="clip0_68_30204">
<rect width="722" height="858" fill="white" transform="translate(222.067) rotate(15)"/>
</clipPath>
</defs>
</svg>
